<svg width="21" height="22" viewBox="0 0 21 22" fill="none" xmlns="http://www.w3.org/2000/svg">
<path fill-rule="evenodd" clip-rule="evenodd" d="M11.7026 5.57053C13.5967 7.46457 13.5967 10.5354 11.7026 12.4295C9.80857 14.3235 6.73772 14.3235 4.84368 12.4295C2.94964 10.5354 2.94964 7.46457 4.84368 5.57053C6.73772 3.67649 9.80857 3.67649 11.7026 5.57053ZM12.4097 4.86343C14.6943 7.14799 14.6943 10.852 12.4097 13.1366C10.1252 15.4211 6.42114 15.4211 4.13657 13.1366C1.85201 10.852 1.85201 7.14799 4.13657 4.86343C6.42114 2.57886 10.1252 2.57886 12.4097 4.86343ZM12.0562 13.4901L16.511 17.9449L17.2181 17.2378L12.7633 12.783L12.0562 13.4901Z" fill="#A0A0A0"/>
</svg>
